<svg xmlns="http://www.w3.org/2000/svg" width="17.643" height="17.638"><path data-name="Path 1467" d="M17.641 7.864a7.853 7.853 0 0 1-.5 2.842 3.8 3.8 0 0 1-3.51 2.755 2.435 2.435 0 0 1-2.3-1.392 4.482 4.482 0 0 1-3.142 1.392 3.977 3.977 0 0 1-3.009-1.148 5.186 5.186 0 0 1 .345-6.81c1.584-1.52 3.65-1.561 5.826-1.214a11.23 11.23 0 0 1 1.841.426l-.248 5.274q0 1.5.821 1.5.691 0 1.1-1.009a7.1 7.1 0 0 0 .411-2.636 6.331 6.331 0 0 0-.722-3.065 5.437 5.437 0 0 0-5.031-2.735 7.669 7.669 0 0 0-3.793.892C3.409 4.228 2.409 6.717 2.409 9.418a6.172 6.172 0 0 0 1.593 4.567c2.319 2.318 6.76 1.725 9.832.6v2.071a13 13 0 0 1-5.129.982 8.975 8.975 0 0 1-6.4-2.157 7.833 7.833 0 0 1-2.296-6 9.18 9.18 0 0 1 4.506-8.244A9.885 9.885 0 0 1 9.499.003a7.854 7.854 0 0 1 7.127 3.732 8.235 8.235 0 0 1 1.015 4.129ZM6.584 9.213q0 2.278 1.858 2.278c1.577 0 1.984-1.336 2.095-2.913l.14-2.383a5.885 5.885 0 0 0-1.242-.12c-1.888-.001-2.851 1.288-2.851 3.138Z" fill="#111"/></svg>