<svg data-name="Group 1312" xmlns="http://www.w3.org/2000/svg" width="170" height="41.864"><g data-name="Group 1311"><path data-name="Path 1484" d="M12.144 12.917a6.931 6.931 0 0 1 6.2 3.461l-2.3 1.207a4.588 4.588 0 0 0-3.9-2.253A5.284 5.284 0 0 0 6.8 20.924a5.317 5.317 0 0 0 5.336 5.593 4.634 4.634 0 0 0 3.9-2.253l2.318 1.159a7.075 7.075 0 0 1-6.221 3.509A7.936 7.936 0 0 1 4.982 24.9l5.528 16.964 29.431-9.593-3.952-12.128c.024.258.032.515.032.781a7.7 7.7 0 0 1-7.921 8.008 7.683 7.683 0 0 1-7.919-8.007 7.683 7.683 0 0 1 7.919-8.008 7.67 7.67 0 0 1 6.672 3.517L29.431 0 0 9.593 4.128 22.26a9.071 9.071 0 0 1-.1-1.336 7.8 7.8 0 0 1 8.116-8.007Z"/><path data-name="Path 1485" d="M28.11 15.331c-3.131 0-5.126 2.39-5.126 5.593 0 3.179 2 5.593 5.126 5.593 3.114 0 5.126-2.414 5.126-5.593.009-3.203-2.012-5.593-5.126-5.593Z"/></g><path data-name="Path 1486" d="M54.282 28.393V16.434L49.55 28.385h-1.159l-4.756-11.951v11.951h-2.712V12.909h3.831l4.225 10.631 4.2-10.631h3.831v15.484Z" fill="#1d1d1b"/><path data-name="Path 1487" d="M61.227 28.393V12.909h6.82a4.691 4.691 0 0 1 5.038 4.853 4.7 4.7 0 0 1-5.038 4.828h-4.108v5.8h-2.712Zm9.078-10.639a2.424 2.424 0 0 0-2.624-2.463h-3.734v4.9h3.734a2.418 2.418 0 0 0 2.624-2.437Z" fill="#1d1d1b"/><path data-name="Path 1488" d="M75.616 20.658a7.919 7.919 0 1 1 15.838 0 7.919 7.919 0 1 1-15.838 0Zm13.045 0c0-3.2-2.02-5.593-5.126-5.593-3.131 0-5.126 2.39-5.126 5.593 0 3.179 2 5.593 5.126 5.593 3.106.001 5.126-2.414 5.126-5.593Z" fill="#1d1d1b"/><path data-name="Path 1489" d="m93.981 26.203 1.529-2.109a6.66 6.66 0 0 0 4.9 2.157c2.229 0 3.09-1.094 3.09-2.133 0-3.251-9.005-1.231-9.005-6.921 0-2.575 2.229-4.547 5.641-4.547a8.013 8.013 0 0 1 5.778 2.181l-1.529 2.02a6.314 6.314 0 0 0-4.507-1.787c-1.577 0-2.6.789-2.6 1.923 0 2.905 9.005 1.111 9.005 6.873 0 2.575-1.835 4.8-5.988 4.8a8.464 8.464 0 0 1-6.314-2.457Z" fill="#1d1d1b"/><path data-name="Path 1490" d="M109.698 28.393V12.909h2.712v15.484Z" fill="#1d1d1b"/><path data-name="Path 1491" d="M120.33 28.393V15.299h-4.692v-2.39h12.1v2.39h-4.692v13.094Z" fill="#1d1d1b"/><path data-name="Path 1492" d="M130.961 28.393V12.909h2.712v15.484Z" fill="#1d1d1b"/><path data-name="Path 1493" d="M137.23 20.658a7.919 7.919 0 1 1 15.838 0 7.919 7.919 0 1 1-15.838 0Zm13.045 0c0-3.2-2.02-5.593-5.126-5.593-3.131 0-5.126 2.39-5.126 5.593 0 3.179 2 5.593 5.126 5.593 3.106.001 5.126-2.414 5.126-5.593Z" fill="#1d1d1b"/><path data-name="Path 1494" d="m167.376 28.393-8.08-11.074v11.074h-2.712V12.909h2.785l7.919 10.728V12.909H170v15.484Z" fill="#1d1d1b"/></svg>