<svg data-name="Group 1366" xmlns="http://www.w3.org/2000/svg" width="39.941" height="41.864"><path data-name="Path 1484" d="M12.144 12.917a6.931 6.931 0 0 1 6.2 3.461l-2.3 1.207a4.588 4.588 0 0 0-3.9-2.253A5.284 5.284 0 0 0 6.8 20.924a5.317 5.317 0 0 0 5.336 5.593 4.634 4.634 0 0 0 3.9-2.253l2.318 1.159a7.075 7.075 0 0 1-6.221 3.509A7.936 7.936 0 0 1 4.982 24.9l5.528 16.964 29.431-9.593-3.952-12.128c.024.258.032.515.032.781a7.7 7.7 0 0 1-7.921 8.008 7.683 7.683 0 0 1-7.919-8.007 7.683 7.683 0 0 1 7.919-8.008 7.67 7.67 0 0 1 6.672 3.517L29.431 0 0 9.593 4.128 22.26a9.071 9.071 0 0 1-.1-1.336 7.8 7.8 0 0 1 8.116-8.007Z"/><path data-name="Path 1485" d="M28.11 15.331c-3.131 0-5.126 2.39-5.126 5.593 0 3.179 2 5.593 5.126 5.593 3.114 0 5.126-2.414 5.126-5.593.009-3.203-2.012-5.593-5.126-5.593Z"/></svg>